<svg width="400" height="400" viewBox="0 0 400 400" fill="none" xmlns="http://www.w3.org/2000/svg">
<g id="arrow_right 1" clip-path="url(#clip0)">
<g id="Group">
<g id="Group_2">
<path id="Vector" d="M88.8822 215.608L266.887 393.61C271.004 397.73 276.5 400 282.36 400C288.22 400 293.716 397.73 297.833 393.61L310.942 380.504C319.472 371.964 319.472 358.085 310.942 349.558L161.467 200.083L311.108 50.4419C315.225 46.3216 317.498 40.8289 317.498 34.9721C317.498 29.1087 315.225 23.6161 311.108 19.4925L297.999 6.3902C293.879 2.26991 288.386 0 282.526 0C276.666 0 271.17 2.26991 267.053 6.3902L88.8822 184.555C84.7555 188.688 82.4888 194.207 82.5018 200.073C82.4888 205.963 84.7555 211.478 88.8822 215.608Z" fill="black"/>
</g>
</g>
</g>
<defs>
<clipPath id="clip0">
<rect width="400" height="400" fill="white"/>
</clipPath>
</defs>
</svg>
