<svg width="400" height="400" viewBox="0 0 400 400" fill="none" xmlns="http://www.w3.org/2000/svg">
<g id="arrow_right 1" clip-path="url(#clip0)">
<g id="Group">
<g id="Group_2">
<path id="Vector" d="M311.118 184.392L133.113 6.39019C128.996 2.2699 123.5 0 117.64 0C111.78 0 106.284 2.2699 102.167 6.39019L89.0578 19.4958C80.5278 28.0355 80.5278 41.9151 89.0578 50.4419L238.533 199.917L88.892 349.558C84.7749 353.678 82.5018 359.171 82.5018 365.028C82.5018 370.891 84.7749 376.384 88.892 380.507L102.001 393.61C106.121 397.73 111.614 400 117.474 400C123.334 400 128.83 397.73 132.947 393.61L311.118 215.445C315.245 211.312 317.511 205.793 317.498 199.927C317.511 194.037 315.245 188.522 311.118 184.392Z" fill="black"/>
</g>
</g>
</g>
<defs>
<clipPath id="clip0">
<rect width="400" height="400" fill="white"/>
</clipPath>
</defs>
</svg>
