<svg width="775" height="400" viewBox="0 0 775 400" fill="none" xmlns="http://www.w3.org/2000/svg">
<g id="eye 1">
<rect width="775" height="400" fill="var(--fill-b, #2aacc8)"/>
<g id="Group">
<g id="visibility">
<path id="Vector" d="M238 115C181.182 115 132.318 150.227 113 200.227C132.318 250.227 181.182 285.455 238 285.455C294.818 285.455 343.682 250.227 363 200.227C343.682 150.227 294.818 115 238 115ZM238 257.045C206.182 257.045 181.182 232.045 181.182 200.227C181.182 168.409 206.182 143.409 238 143.409C269.818 143.409 294.818 168.409 294.818 200.227C294.818 232.045 269.818 257.045 238 257.045ZM238 166.136C218.682 166.136 203.909 180.909 203.909 200.227C203.909 219.545 218.682 234.318 238 234.318C257.318 234.318 272.091 219.545 272.091 200.227C272.091 180.909 257.318 166.136 238 166.136Z" fill="white"/>
</g>
</g>
<g id="Page 1">
<g id="048   Link">
<path id="Shape" d="M447.379 240.474C440.094 247.746 436 257.616 436 267.909C436 278.203 440.094 288.073 447.379 295.345L465.655 313.621C472.927 320.906 482.797 325 493.09 325C503.384 325 513.254 320.906 520.526 313.621L599.19 234.957C604.452 229.72 608.09 223.074 609.664 215.819L609.965 214.181C610.026 213.828 610.056 213.47 610.108 213.116C610.203 212.465 610.31 211.823 610.371 211.168C610.491 209.957 610.569 208.741 610.569 207.543C610.622 201.782 609.338 196.087 606.819 190.905C606.514 190.202 606.154 189.525 605.741 188.879L603.931 185.819L603.5 185.172C602.233 183.34 600.789 181.637 599.19 180.086L580.914 161.81C579.899 160.779 578.819 159.815 577.681 158.922L557.896 178.664C560.851 179.434 563.545 180.982 565.698 183.147L577.853 195.302C582.533 199.969 584.125 206.906 581.948 213.147C581.599 214.234 581.121 215.276 580.526 216.25C579.802 217.52 578.903 218.681 577.853 219.698L555.095 242.5L548.155 249.397L505.267 292.284C502.039 295.533 497.648 297.359 493.069 297.359C488.489 297.359 484.099 295.533 480.871 292.284L468.715 280.129C465.467 276.901 463.641 272.511 463.641 267.931C463.641 263.351 465.467 258.961 468.715 255.733L512.121 212.284C511.573 211.368 511.083 210.418 510.655 209.44C506.419 200.627 505.061 190.704 506.776 181.078L447.379 240.474Z" fill="white"/>
<path id="Shape_2" d="M656.345 86.3792C649.073 79.094 639.203 75 628.91 75C618.616 75 608.746 79.094 601.474 86.3792L532.164 155.733L526.043 161.81C514.408 173.409 511.382 191.098 518.5 205.905C519.734 208.598 521.314 211.119 523.198 213.405C524.076 214.543 525.026 215.623 526.043 216.638L544.362 234.957C545.388 235.976 546.467 236.94 547.595 237.845L567.336 218.103C564.409 217.298 561.737 215.754 559.578 213.621L547.379 201.422C545.262 199.267 543.72 196.614 542.897 193.707C541.755 189.224 542.42 184.471 544.75 180.474C545.472 179.215 546.356 178.055 547.379 177.026L570.181 154.224L576.56 147.845L616.733 107.715C619.961 104.467 624.351 102.641 628.931 102.641C633.511 102.641 637.901 104.467 641.129 107.715L653.285 119.871C656.533 123.099 658.359 127.489 658.359 132.069C658.359 136.648 656.533 141.039 653.285 144.267L613.155 184.44C613.68 185.317 614.155 186.224 614.578 187.155C618.83 196.025 620.187 206.007 618.457 215.69L674.621 159.526C681.906 152.254 686 142.384 686 132.09C686 121.797 681.906 111.927 674.621 104.655L656.345 86.3792Z" fill="white"/>
</g>
</g>
</g>
</svg>
