<svg xmlns="http://www.w3.org/2000/svg" xmlns:xlink="http://www.w3.org/1999/xlink" style="width: 0; height: 0; visibility: hidden; position: absolute;" aria-hidden="true">
<symbol  viewBox='0 0 400 400' id='arrow_left'>
    <g clip-path="url(#clip0)"><path d="M88.9 215.6l178 178a21.8 21.8 0 0030.9 0l13.1-13.1a22 22 0 000-31L161.5 200.2 311 50.4a21.8 21.8 0 000-31L298 6.5A21.7 21.7 0 00282.5 0c-5.8 0-11.3 2.3-15.4 6.4L88.9 184.6a21.8 21.8 0 00-6.4 15.5c0 5.9 2.3 11.4 6.4 15.5z" fill="var(--fill-b, #2aacc8)"></path></g><defs><clippath id="clip0"><path fill="var(--fill-w, #fff)" d="M0 0h400v400H0z"></path></clippath></defs>
  </symbol>
  <symbol  viewBox='0 0 400 400' id='arrow_right'>
    <g clip-path="url(#clip0)"><path d="M311.1 184.4l-178-178A21.7 21.7 0 00117.6 0c-5.8 0-11.3 2.3-15.4 6.4L89 19.5a22 22 0 000 31l149.4 149.4L89 349.6a21.8 21.8 0 000 31l13.1 13a21.8 21.8 0 0030.9 0l178.2-178.2c4.1-4 6.4-9.6 6.4-15.5s-2.3-11.4-6.4-15.5z" fill="var(--fill-b, #2aacc8)"></path></g><defs><clippath id="clip0"><path fill="var(--fill-w, #fff)" d="M0 0h400v400H0z"></path></clippath></defs>
  </symbol>
  <symbol  viewBox='0 0 400 400' id='circle'>
    <circle cx="200" cy="200" r="200" fill="var(--fill-b, #2aacc8)"></circle>
  </symbol>
  <symbol  viewBox='0 0 400 400' id='cursor'>
    <g clip-path="url(#clip0)"><path d="M339.2 252.4l-250-250a8.3 8.3 0 00-14.2 6V375a8.3 8.3 0 0014.8 5.3l66.5-81.4 44.5 96.3a8.3 8.3 0 0010.8 4.1l58.3-25a8.3 8.3 0 004.3-11.1l-44.5-96.5h103.6a8.3 8.3 0 006-14.3z" fill="var(--fill-b, #2aacc8)"></path></g><defs><clippath id="clip0"><path fill="var(--fill-w, #fff)" d="M0 0h400v400H0z"></path></clippath></defs>
  </symbol>
  <symbol  viewBox='0 0 400 400' id='eye'>
    <path d="M200 63.6C109 63.6 31 120 0 200c31 80 109 136.4 200 136.4S369 280 400 200C369 120 291 63.6 200 63.6zm0 227.3c-51 0-91-40-91-90.9 0-51 40-91 91-91s91 40 91 91-40 91-91 91zm0-145.4c-31 0-54.5 23.6-54.5 54.5 0 31 23.6 54.5 54.5 54.5 31 0 54.5-23.6 54.5-54.5 0-31-23.6-54.5-54.5-54.5z" fill="var(--fill-b, #2aacc8)"></path>
  </symbol>
  <symbol  viewBox='0 0 400 400' id='layers'>
    <path d="M200 0a200 200 0 100 400 200 200 0 000-400zm113 269l-108.4 53.8a10.4 10.4 0 01-9.2 0L87 269a10.4 10.4 0 019.2-18.6L200 301.9l103.8-51.4A10.4 10.4 0 11313 269zm0-39.4l-108.4 53.7a10.4 10.4 0 01-9.2 0L87 229.6a10.4 10.4 0 019.2-18.6L200 262.4 303.8 211a10.4 10.4 0 119.2 18.6zm0-39.5l-108.4 53.7a10.4 10.4 0 01-9.2 0L87 190.1a10.4 10.4 0 119.2-18.6L200 223l103.8-51.4a10.4 10.4 0 019.2 18.6zm0-41.4l-108.4 53.7a10.4 10.4 0 01-9.2 0L87 148.7a10.4 10.4 0 010-18.6l108.4-53.7a10 10 0 019.2 0L313 130a10.4 10.4 0 010 18.6z" fill="var(--fill-b, #2aacc8)"></path>
  </symbol>
  <symbol  viewBox='0 0 400 400' id='link'>
    <g fill="var(--fill-b, var(--fill-b, #2aacc8)"><path d="M18.2 264.8a62 62 0 000 87.8l29.2 29.2a62 62 0 0087.8 0l125.9-125.9c8.4-8.3 14.2-19 16.8-30.6l.4-2.6.3-1.7.4-3.1a58.7 58.7 0 00-5.7-32.5 23 23 0 00-1.7-3.2l-3-4.9-.6-1c-2-3-4.3-5.7-6.9-8.2L231.9 139a54 54 0 00-5.2-4.6L195 165.9c4.8 1.2 9 3.7 12.5 7.1l19.5 19.5a27.5 27.5 0 010 39L190.6 268l-11.2 11-68.6 68.7a27.5 27.5 0 01-39 0l-19.5-19.5a27.5 27.5 0 010-39l69.5-69.5a74.6 74.6 0 01-8.6-50l-95 95z"></path><path d="M352.6 18.2a62 62 0 00-87.8 0l-111 111-9.7 9.7a61.8 61.8 0 000 87.7l29.3 29.3a47 47 0 005.2 4.7L210 229c-4.6-1.3-9-3.8-12.4-7.2l-19.5-19.5a28.8 28.8 0 01-7.2-12.4 28.2 28.2 0 017.2-26.7l36.5-36.4 10.2-10.2 64.3-64.3a27.5 27.5 0 0139 0l19.5 19.5a27.5 27.5 0 010 39l-64.3 64.3a75 75 0 018.5 50l89.9-89.9a62 62 0 000-87.8l-29.2-29.2z"></path></g>
  </symbol>
  <symbol  viewBox='0 0 400 400' id='pencil'>
    <path d="M200 0a200 200 0 100 400 200 200 0 000-400zm95 144l-19 19-38.6-38.7-14.7 14.6 38.7 38.7-94.8 94.8-38.7-38.6-14.7 14.6 38.7 38.7-9.5 9.5-.1-.2c-1 1.7-2.8 3-4.8 3.4l-36 8a7.5 7.5 0 01-9-9l8-36c.5-2 1.7-3.7 3.5-4.7l-.2-.2 152.6-152.6a5.7 5.7 0 018.1 0l30.6 30.5a5.7 5.7 0 010 8.1z" fill="var(--fill-b, #2aacc8)"></path>
  </symbol>
   <symbol  viewBox='0 0 400 400' id='responsive_design'>
    <g clip-path="url(#clip0)"><circle cx="200" cy="200" r="200" fill="var(--fill-b, #2aacc8)"></circle><g fill="#fff"><path d="M327 150h-42.2c-4.5 0-8.5 3.4-8.5 7.9v9H230c-4.6 0-8.5 3.4-8.5 7.9V264h-148l-.5-.5v-17h140v-7.9H73V103h228.7c.2 0 0-.1 0 0v38h8v-38c0-4.5-3.5-7.9-8-7.9H73.5c-4.6 0-8.5 3.4-8.5 8v160.6c0 4.5 4 8.4 8.5 8.4h88.7V298h-16.9v8H230v-8h-17.5v-26h9v8.5c0 4.5 4 8.4 8.5 8.4h71.8c4.5 0 8-4 8-8.4v-29.6H327c4.5 0 7.9-4 7.9-8.5V158c0-4.5-3.4-8-8-8zM204.6 297.9H170V272h34.4v26zm80.3-140h42.3c.1 0 0-.2 0 0v9h-42.8v-9c0-.2.4 0 .5 0zm-.5 16.9H327V226h-42.8v-51.2zM301.7 281H230c-.2 0-.6-.4-.6-.5V272h72.4v8.5c0 .1.2.5 0 .5zm0-17h-72.4v-89.2c0-.2.4 0 .6 0h46.4v67.6c0 4.5 4 8.5 8.5 8.5h17V264zm25.4-21h-42.3c-.1 0-.5-.4-.5-.6V234H327v8.9z"></path><path d="M166.4 221.8h8.5v8h-8.5v-8zm17 0h8.4v8h-8.4v-8zm16.9 0h8.4v8h-8.4v-8zM89.8 132.5v-12.7H103V112H82v20.6h7.8zM234 196h8v-8.5h9v-8h-17V196zm55-16.5V196h8v-8.4h9v-8h-17z"></path></g></g><defs><clippath id="clip0"><path fill="#fff" d="M0 0h400v400H0z"></path></clippath></defs>
  </symbol>
  <symbol  viewBox='0 0 400 400' id='telegram'>
    <path d="M200 400a200 200 0 100-400 200 200 0 000 400z" fill="var(--fill-b, #2aacc8)"></path><path d="M325.5 190.1l-218.1-86c-10.1-3.8-19 2.5-15.7 18.1l37.1 179c2.8 12.8 10.1 15.8 20.5 9.9l56.5-42.7 27.3 26.9c3 3 5.6 5.7 11.4 5.7l-4-58.9-104.8-96.9c-4.6-4.1 1-6.4 7-2.3l129.6 83.4 55.8-17.8c12.1-4 12.4-12.4-2.6-18.4z" fill="var(--fill-w, #fff)"></path>
  </symbol></svg>